<svg id="Layer_1" data-name="Layer 1" xmlns="http://www.w3.org/2000/svg" viewBox="0 0 746.79 758.16">
  <title>face</title>
  <path d="M638.88,355c32.35-5.73,54.32,5.87,64.11,36.68,16.3,51.29,7.19,100-22.55,144-17.37,25.68-43.58,31.84-74.22,22.85-2.5,6.82-5.24,13.32-7.27,20-26.57,87.73-108.18,138.76-189.51,146.58-57.54,5.52-111.14-4.26-161.67-32.2-53-29.33-86.75-74.35-108.07-131.68-13.94,7.17-29,7.42-43-.27-17-9.33-30.65-22.54-39.57-40.15-19-37.57-25-77.09-16.71-118.39,2.89-14.3,9-27.4,21.91-36.05,13.17-8.83,27.06-11.77,44.06-4.54-1.17-11.42-2.07-21.61-3.26-31.77-9.9-84.15,10.71-159.94,64.41-225.55,43.43-53.06,102.32-78.08,169-85.9,44.18-5.18,88.18-2.72,131.13,9.71,69.64,20.16,117.77,66,147.84,130.31,27,57.77,34.75,119.15,24.5,182.46C639.33,345.59,639.27,350.18,638.88,355ZM215.83,94.9C159.52,135.32,126.6,194.34,126.6,304c0,34.24,12.74,79,20.1,123.91.8,4.83-4.09,9.38-6.25,14.07-4.52-3.19-11.06-5.4-13.16-9.75-4.72-9.79-6.86-20.78-10.73-31C109.32,382,88.13,376.5,73.64,390.81c-6,5.93-11.32,14.32-13.09,22.44C54,443.51,58.17,473,70.66,501.35c6.58,14.92,14.6,28.76,28.9,37.86,12.32,7.83,29.74,8.57,38.23,1.37,12.73-10.81,15.46-10.1,21.22,5.66,1.16,3.18,2.05,6.46,3.13,9.67,13,38.43,35.38,71.36,67.26,95.46,60.67,45.85,129.72,61.34,204.37,45,52.47-11.52,94.91-38.52,124.56-85.1,14.95-23.48,23.18-48.72,29.91-75.05,3-11.78,7.89-13.55,16.82-7,21.19,15.61,46.59,11,61.49-11.23a132,132,0,0,0,22.58-70.56c.43-16.88-3.14-34.37-7.91-50.72-3.65-12.52-15-19.25-28.81-18.82-13.12.4-19,9.93-23.23,20.52-2.36,5.85-3.49,12.18-5.74,18.08s-4.45,12.09-8.14,17.06c-2.39,3.2-7.42,4.43-11.27,6.55-1.89-4-5.08-7.77-5.46-11.85-3-32.1,9.91-24.84,20.1-101.33,7.65-114.73-17.84-168.28-58.64-214.17-27.92-31.41-73.94-73.94-173.37-73.94C300,41.36,269.38,54.11,215.83,94.9Z"/>
</svg>
