<svg version="1.1" xmlns="http://www.w3.org/2000/svg" xmlns:xlink="http://www.w3.org/1999/xlink" width="500" height="500"><g fill="none" fill-rule="nonzero" stroke="none" stroke-width="1" stroke-linecap="butt" stroke-linejoin="miter" stroke-miterlimit="10" stroke-dasharray="" stroke-dashoffset="0" font-family="none" font-weight="none" font-size="none" text-anchor="none" style="mix-blend-mode: normal"><path d="M373.90628,414.20019c3.54818,24.6793 8.97211,53.50048 -2.98306,77.48536c-11.95517,23.98488 -41.28945,43.13347 -66.70398,45.45413c-25.41453,2.32066 -46.90931,-12.1866 -73.49132,-19.69595c-26.58201,-7.50935 -58.25124,-8.02079 -74.87614,-24.47034c-16.62491,-16.44955 -18.20549,-48.8372 -17.91529,-78.77319c0.2902,-29.93599 2.45118,-57.42031 16.18571,-80.02981c13.73453,-22.60949 39.0426,-40.34416 67.67172,-50.70977c28.62911,-10.36562 60.57927,-13.36219 85.36053,-1.23355c24.78126,12.12864 42.39364,39.38249 52.04851,63.00304c9.65488,23.62055 11.15515,44.29079 14.70332,68.97009z" fill-opacity="0.2" fill="#ff2e62"/><path d="M0,0v0v0v0z" fill="none"/><path d="M173.71005,395.18539c0,-5.52285 40.29437,-10 90,-10c49.70563,0 90,4.47715 90,10c0,5.52285 -40.29437,10 -90,10c-49.70563,0 -90,-4.47715 -90,-10z" fill-opacity="0.5" fill="#ff2e62"/><path d="M0,0v0v0v0z" fill="none"/><path d="M185.76777,350.18539c2.76142,-4.78293 39.89595,11.48693 82.94229,36.33975c43.04634,24.85281 75.70371,48.87733 72.94229,53.66025c-2.76142,4.78293 -39.89595,-11.48693 -82.94229,-36.33975c-43.04634,-24.85281 -75.70371,-48.87733 -72.94229,-53.66025z" fill-opacity="0.5" fill="#ff2e62"/><path d="M0,0v0v0v0z" fill="none"/><path d="M218.71005,317.24311c4.78293,-2.76142 28.80744,29.89595 53.66025,72.94229c24.85281,43.04634 41.12267,80.18086 36.33975,82.94229c-4.78293,2.76142 -28.80744,-29.89595 -53.66025,-72.94229c-24.85281,-43.04634 -41.12267,-80.18086 -36.33975,-82.94229z" fill-opacity="0.5" fill="#ff2e62"/><path d="M0,0v0v0v0z" fill="none"/><path d="M263.71005,305.18539c5.52285,0 10,40.29437 10,90c0,49.70563 -4.47715,90 -10,90c-5.52285,0 -10,-40.29437 -10,-90c0,-49.70563 4.47715,-90 10,-90z" fill-opacity="0.5" fill="#ff2e62"/><path d="M0,0v0v0v0z" fill="none"/><path d="M308.71005,317.24311c4.78293,2.76142 -11.48693,39.89595 -36.33975,82.94229c-24.85281,43.04634 -48.87733,75.70371 -53.66025,72.94229c-4.78293,-2.76142 11.48693,-39.89595 36.33975,-82.94229c24.85281,-43.04634 48.87733,-75.70371 53.66025,-72.94229z" fill-opacity="0.5" fill="#ff2e62"/><path d="M0,0v0v0v0z" fill="none"/><path d="M341.65234,350.18539c2.37569,4.4019 -34.0333,31.19614 -72.94229,53.66025c-38.90899,22.46411 -80.31798,40.5981 -82.94229,36.33975c-2.62431,-4.25836 33.53606,-30.90906 72.94229,-53.66025c39.40623,-22.7512 80.5666,-40.74164 82.94229,-36.33975z" fill-opacity="0.5" fill="#ff2e62"/><path d="M137.36851,74.16367c3.6596,24.65959 -2.70133,52.09774 -16.29188,75.61135c-13.59055,23.51361 -34.41071,43.1027 -61.90086,54.17222c-27.49015,11.06952 -61.65029,13.61949 -84.66472,1.00406c-23.01443,-12.61543 -34.88314,-40.39627 -47.93624,-65.08515c-13.0531,-24.68888 -27.29057,-46.2858 -26.09432,-65.70249c1.19625,-19.41669 17.82622,-36.65315 30.63476,-62.40367c12.80853,-25.75053 21.79562,-60.01512 43.06305,-69.40808c21.26743,-9.39296 54.81519,6.08572 78.89943,20.79602c24.08424,14.7103 38.70495,28.65223 52.76971,46.46903c14.06475,17.8168 27.86147,39.8871 31.52108,64.5467z" fill-opacity="0.2" fill="#00a1c8"/><path d="M0,0v0v0v0z" fill="none"/><path d="M35.94299,236.6787c0,-5.52285 40.29437,-10 90,-10c49.70563,0 90,4.47715 90,10c0,5.52285 -40.29437,10 -90,10c-49.70563,0 -90,-4.47715 -90,-10z" fill-opacity="0.5" fill="#00a1c8"/><path d="M0,0v0v0v0z" fill="none"/><path d="M48.0007,191.6787c2.76142,-4.78293 39.89595,11.48693 82.94229,36.33975c43.04634,24.85281 75.70371,48.87733 72.94229,53.66025c-2.76142,4.78293 -39.89595,-11.48693 -82.94229,-36.33975c-43.04634,-24.85281 -75.70371,-48.87733 -72.94229,-53.66025z" fill-opacity="0.5" fill="#00a1c8"/><path d="M0,0v0v0v0z" fill="none"/><path d="M80.94299,158.73641c4.78293,-2.76142 28.80744,29.89595 53.66025,72.94229c24.85281,43.04634 41.12267,80.18086 36.33975,82.94229c-4.78293,2.76142 -28.80744,-29.89595 -53.66025,-72.94229c-24.85281,-43.04634 -41.12267,-80.18086 -36.33975,-82.94229z" fill-opacity="0.5" fill="#00a1c8"/><path d="M0,0v0v0v0z" fill="none"/><path d="M125.94299,146.6787c5.52285,0 10,40.29437 10,90c0,49.70563 -4.47715,90 -10,90c-5.52285,0 -10,-40.29437 -10,-90c0,-49.70563 4.47715,-90 10,-90z" fill-opacity="0.5" fill="#00a1c8"/><path d="M0,0v0v0v0z" fill="none"/><path d="M170.94299,158.73641c4.78293,2.76142 -11.48693,39.89595 -36.33975,82.94229c-24.85281,43.04634 -48.87733,75.70371 -53.66025,72.94229c-4.78293,-2.76142 11.48693,-39.89595 36.33975,-82.94229c24.85281,-43.04634 48.87733,-75.70371 53.66025,-72.94229z" fill-opacity="0.5" fill="#00a1c8"/><path d="M0,0v0v0v0z" fill="none"/><path d="M203.88527,191.6787c2.37569,4.4019 -34.0333,31.19614 -72.94229,53.66025c-38.90899,22.46411 -80.31798,40.5981 -82.94229,36.33975c-2.62431,-4.25836 33.53606,-30.90906 72.94229,-53.66025c39.40623,-22.7512 80.5666,-40.74164 82.94229,-36.33975z" fill-opacity="0.5" fill="#00a1c8"/><path d="M144.76482,150.05203c0.17741,30.28551 0.46729,59.03221 -12.89696,81.97896c-13.36425,22.94675 -40.38261,40.09356 -69.98352,49.90238c-29.6009,9.80881 -61.78434,12.27964 -85.60225,-0.30604c-23.8179,-12.58568 -39.27027,-40.22785 -50.61165,-63.74306c-11.34138,-23.51522 -18.57178,-42.90348 -22.28487,-67.83223c-3.71309,-24.92875 -3.90886,-55.39797 10.82544,-76.158c14.7343,-20.76002 44.39868,-31.81084 68.83446,-34.60176c24.43579,-2.79092 43.64298,2.67806 69.72968,6.91361c26.0867,4.23556 59.05291,7.23769 75.4687,24.50017c16.41579,17.26248 16.34355,49.06046 16.52096,79.34597z" fill-opacity="0.2" fill="#d77800"/><path d="M0,0v0v0v0z" fill="none"/><path d="M299.35824,177.12501c0,-5.52285 40.29437,-10 90,-10c49.70563,0 90,4.47715 90,10c0,5.52285 -40.29437,10 -90,10c-49.70563,0 -90,-4.47715 -90,-10z" fill-opacity="0.5" fill="#d77800"/><path d="M0,0v0v0v0z" fill="none"/><path d="M311.41596,132.12501c2.76142,-4.78293 39.89595,11.48693 82.94229,36.33975c43.04634,24.85281 75.70371,48.87733 72.94229,53.66025c-2.76142,4.78293 -39.89595,-11.48693 -82.94229,-36.33975c-43.04634,-24.85281 -75.70371,-48.87733 -72.94229,-53.66025z" fill-opacity="0.5" fill="#d77800"/><path d="M0,0v0v0v0z" fill="none"/><path d="M344.35824,99.18272c4.78293,-2.76142 28.80744,29.89595 53.66025,72.94229c24.85281,43.04634 41.12267,80.18086 36.33975,82.94229c-4.78293,2.76142 -28.80744,-29.89595 -53.66025,-72.94229c-24.85281,-43.04634 -41.12267,-80.18086 -36.33975,-82.94229z" fill-opacity="0.5" fill="#d77800"/><path d="M0,0v0v0v0z" fill="none"/><path d="M389.35824,87.12501c5.52285,0 10,40.29437 10,90c0,49.70563 -4.47715,90 -10,90c-5.52285,0 -10,-40.29437 -10,-90c0,-49.70563 4.47715,-90 10,-90z" fill-opacity="0.5" fill="#d77800"/><path d="M0,0v0v0v0z" fill="none"/><path d="M434.35824,99.18272c4.78293,2.76142 -11.48693,39.89595 -36.33975,82.94229c-24.85281,43.04634 -48.87733,75.70371 -53.66025,72.94229c-4.78293,-2.76142 11.48693,-39.89595 36.33975,-82.94229c24.85281,-43.04634 48.87733,-75.70371 53.66025,-72.94229z" fill-opacity="0.5" fill="#d77800"/><path d="M0,0v0v0v0z" fill="none"/><path d="M467.30053,132.12501c2.37569,4.4019 -34.0333,31.19614 -72.94229,53.66025c-38.90899,22.46411 -80.31798,40.5981 -82.94229,36.33975c-2.62431,-4.25836 33.53606,-30.90906 72.94229,-53.66025c39.40623,-22.7512 80.5666,-40.74164 82.94229,-36.33975z" fill-opacity="0.5" fill="#d77800"/><path d="M517.26121,344.66172c0.29112,28.09721 -10.7321,55.49493 -27.4649,76.81696c-16.7328,21.32203 -39.17519,36.56836 -65.75195,46.22121c-26.57676,9.65285 -57.28788,13.71223 -81.74012,5.49389c-24.45224,-8.21834 -42.64559,-28.71439 -62.1457,-53.03826c-19.50011,-24.32387 -40.30698,-52.47557 -35.86898,-75.4938c4.43799,-23.01823 34.12085,-40.90299 53.62858,-62.5907c19.50774,-21.68771 28.84035,-47.17839 47.79644,-55.44544c18.95609,-8.26705 47.53564,0.68951 73.7943,8.95677c26.25866,8.26726 50.19641,15.84522 67.9466,33.96313c17.75019,18.11791 29.51462,47.01902 29.80574,75.11624z" fill-opacity="0.2" fill="#3900ba"/><path d="M0,0v0v0v0z" fill="none"/><path d="M317.70847,278.79881c0,-5.52285 40.29437,-10 90,-10c49.70563,0 90,4.47715 90,10c0,5.52285 -40.29437,10 -90,10c-49.70563,0 -90,-4.47715 -90,-10z" fill-opacity="0.5" fill="#3900ba"/><path d="M0,0v0v0v0z" fill="none"/><path d="M329.76618,233.79881c2.76142,-4.78293 39.89595,11.48693 82.94229,36.33975c43.04634,24.85281 75.70371,48.87733 72.94229,53.66025c-2.76142,4.78293 -39.89595,-11.48693 -82.94229,-36.33975c-43.04634,-24.85281 -75.70371,-48.87733 -72.94229,-53.66025z" fill-opacity="0.5" fill="#3900ba"/><path d="M0,0v0v0v0z" fill="none"/><path d="M362.70847,200.85652c4.78293,-2.76142 28.80744,29.89595 53.66025,72.94229c24.85281,43.04634 41.12267,80.18086 36.33975,82.94229c-4.78293,2.76142 -28.80744,-29.89595 -53.66025,-72.94229c-24.85281,-43.04634 -41.12267,-80.18086 -36.33975,-82.94229z" fill-opacity="0.5" fill="#3900ba"/><path d="M0,0v0v0v0z" fill="none"/><path d="M407.70847,188.79881c5.52285,0 10,40.29437 10,90c0,49.70563 -4.47715,90 -10,90c-5.52285,0 -10,-40.29437 -10,-90c0,-49.70563 4.47715,-90 10,-90z" fill-opacity="0.5" fill="#3900ba"/><path d="M0,0v0v0v0z" fill="none"/><path d="M452.70847,200.85652c4.78293,2.76142 -11.48693,39.89595 -36.33975,82.94229c-24.85281,43.04634 -48.87733,75.70371 -53.66025,72.94229c-4.78293,-2.76142 11.48693,-39.89595 36.33975,-82.94229c24.85281,-43.04634 48.87733,-75.70371 53.66025,-72.94229z" fill-opacity="0.5" fill="#3900ba"/><path d="M0,0v0v0v0z" fill="none"/><path d="M485.65076,233.79881c2.37569,4.4019 -34.0333,31.19614 -72.94229,53.66025c-38.90899,22.46411 -80.31798,40.5981 -82.94229,36.33975c-2.62431,-4.25836 33.53606,-30.90906 72.94229,-53.66025c39.40623,-22.7512 80.5666,-40.74164 82.94229,-36.33975z" fill-opacity="0.5" fill="#3900ba"/><path d="M456.61665,4.86238c1.51923,29.49918 8.82197,60.97886 -3.49728,81.57733c-12.31925,20.59847 -44.26048,30.31575 -73.58928,37.50526c-29.3288,7.18951 -56.04517,11.85125 -77.9407,1.71163c-21.89553,-10.13962 -38.97023,-35.0806 -49.0917,-56.61136c-10.12147,-21.53076 -13.28972,-39.6513 -19.03712,-64.18285c-5.7474,-24.53155 -14.07397,-55.47412 -3.53307,-80.58106c10.5409,-25.10694 39.94925,-44.37824 68.13216,-51.07657c28.1829,-6.69833 55.14036,-0.82369 82.58261,9.15212c27.44225,9.97581 55.36929,24.0528 67.1637,44.78859c11.79441,20.7358 7.29146,48.21773 8.81068,77.71692z" fill-opacity="0.2" fill="#1a7800"/><path d="M0,0v0v0v0z" fill="none"/><path d="M325.78046,480.82223c0,-5.52285 40.29437,-10 90,-10c49.70563,0 90,4.47715 90,10c0,5.52285 -40.29437,10 -90,10c-49.70563,0 -90,-4.47715 -90,-10z" fill-opacity="0.5" fill="#1a7800"/><path d="M0,0v0v0v0z" fill="none"/><path d="M337.83817,435.82223c2.76142,-4.78293 39.89595,11.48693 82.94229,36.33975c43.04634,24.85281 75.70371,48.87733 72.94229,53.66025c-2.76142,4.78293 -39.89595,-11.48693 -82.94229,-36.33975c-43.04634,-24.85281 -75.70371,-48.87733 -72.94229,-53.66025z" fill-opacity="0.5" fill="#1a7800"/><path d="M0,0v0v0v0z" fill="none"/><path d="M370.78046,402.87995c4.78293,-2.76142 28.80744,29.89595 53.66025,72.94229c24.85281,43.04634 41.12267,80.18086 36.33975,82.94229c-4.78293,2.76142 -28.80744,-29.89595 -53.66025,-72.94229c-24.85281,-43.04634 -41.12267,-80.18086 -36.33975,-82.94229z" fill-opacity="0.5" fill="#1a7800"/><path d="M0,0v0v0v0z" fill="none"/><path d="M415.78046,390.82223c5.52285,0 10,40.29437 10,90c0,49.70563 -4.47715,90 -10,90c-5.52285,0 -10,-40.29437 -10,-90c0,-49.70563 4.47715,-90 10,-90z" fill-opacity="0.5" fill="#1a7800"/><path d="M0,0v0v0v0z" fill="none"/><path d="M460.78046,402.87995c4.78293,2.76142 -11.48693,39.89595 -36.33975,82.94229c-24.85281,43.04634 -48.87733,75.70371 -53.66025,72.94229c-4.78293,-2.76142 11.48693,-39.89595 36.33975,-82.94229c24.85281,-43.04634 48.87733,-75.70371 53.66025,-72.94229z" fill-opacity="0.5" fill="#1a7800"/><path d="M0,0v0v0v0z" fill="none"/><path d="M493.72274,435.82223c2.37569,4.4019 -34.0333,31.19614 -72.94229,53.66025c-38.90899,22.46411 -80.31798,40.5981 -82.94229,36.33975c-2.62431,-4.25836 33.53606,-30.90906 72.94229,-53.66025c39.40623,-22.7512 80.5666,-40.74164 82.94229,-36.33975z" fill-opacity="0.5" fill="#1a7800"/><path d="M550.76524,276.05252c0.85253,27.51844 -11.71648,53.39047 -29.08362,76.85953c-17.36714,23.46906 -39.53239,44.53515 -64.81761,49.23458c-25.28522,4.69943 -53.69039,-6.96781 -75.63366,-19.41176c-21.94326,-12.44395 -37.42462,-25.66462 -52.3288,-43.47896c-14.90418,-17.81435 -29.2312,-40.22237 -31.89964,-63.20339c-2.66844,-22.98101 6.32168,-46.53502 20.53126,-71.463c14.20958,-24.92798 33.63861,-51.22995 56.92693,-56.05606c23.28832,-4.82611 50.43593,11.82364 75.58995,22.39616c25.15402,10.57252 48.31446,15.0678 66.96319,31.65515c18.64873,16.58735 32.89947,45.94931 33.752,73.46775z" fill-opacity="0.2" fill="#0200b7"/><path d="M0,0v0v0v0z" fill="none"/><path d="M249.28671,128.32184c0,-5.52285 40.29437,-10 90,-10c49.70563,0 90,4.47715 90,10c0,5.52285 -40.29437,10 -90,10c-49.70563,0 -90,-4.47715 -90,-10z" fill-opacity="0.5" fill="#0200b7"/><path d="M0,0v0v0v0z" fill="none"/><path d="M261.34442,83.32184c2.76142,-4.78293 39.89595,11.48693 82.94229,36.33975c43.04634,24.85281 75.70371,48.87733 72.94229,53.66025c-2.76142,4.78293 -39.89595,-11.48693 -82.94229,-36.33975c-43.04634,-24.85281 -75.70371,-48.87733 -72.94229,-53.66025z" fill-opacity="0.5" fill="#0200b7"/><path d="M0,0v0v0v0z" fill="none"/><path d="M294.28671,50.37956c4.78293,-2.76142 28.80744,29.89595 53.66025,72.94229c24.85281,43.04634 41.12267,80.18086 36.33975,82.94229c-4.78293,2.76142 -28.80744,-29.89595 -53.66025,-72.94229c-24.85281,-43.04634 -41.12267,-80.18086 -36.33975,-82.94229z" fill-opacity="0.5" fill="#0200b7"/><path d="M0,0v0v0v0z" fill="none"/><path d="M339.28671,38.32184c5.52285,0 10,40.29437 10,90c0,49.70563 -4.47715,90 -10,90c-5.52285,0 -10,-40.29437 -10,-90c0,-49.70563 4.47715,-90 10,-90z" fill-opacity="0.5" fill="#0200b7"/><path d="M0,0v0v0v0z" fill="none"/><path d="M384.28671,50.37956c4.78293,2.76142 -11.48693,39.89595 -36.33975,82.94229c-24.85281,43.04634 -48.87733,75.70371 -53.66025,72.94229c-4.78293,-2.76142 11.48693,-39.89595 36.33975,-82.94229c24.85281,-43.04634 48.87733,-75.70371 53.66025,-72.94229z" fill-opacity="0.5" fill="#0200b7"/><path d="M0,0v0v0v0z" fill="none"/><path d="M417.22899,83.32184c2.37569,4.4019 -34.0333,31.19614 -72.94229,53.66025c-38.90899,22.46411 -80.31798,40.5981 -82.94229,36.33975c-2.62431,-4.25836 33.53606,-30.90906 72.94229,-53.66025c39.40623,-22.7512 80.5666,-40.74164 82.94229,-36.33975z" fill-opacity="0.5" fill="#0200b7"/><path d="M316.59632,129.02113c1.79433,27.57478 3.43923,57.68005 -10.97798,80.70036c-14.41721,23.02031 -44.89655,38.95565 -71.63179,40.69187c-26.73525,1.73622 -49.72641,-10.72669 -72.11774,-20.82888c-22.39132,-10.10219 -44.18281,-17.84367 -58.79813,-34.10422c-14.61532,-16.26055 -22.05447,-41.04017 -22.9973,-66.45913c-0.94283,-25.41896 4.61067,-51.47725 18.36306,-69.8261c13.75239,-18.34885 35.70369,-28.98826 60.28245,-40.43169c24.57876,-11.44343 51.785,-23.69089 77.60312,-18.32227c25.81812,5.36862 50.24814,28.35332 63.45853,52.1211c13.2104,23.76778 15.02145,48.88418 16.81578,76.45896z" fill-opacity="0.2" fill="#82ff14"/><path d="M0,0v0v0v0z" fill="none"/><path d="M-23.18357,480.67555c0,-5.52285 40.29437,-10 90,-10c49.70563,0 90,4.47715 90,10c0,5.52285 -40.29437,10 -90,10c-49.70563,0 -90,-4.47715 -90,-10z" fill-opacity="0.5" fill="#82ff14"/><path d="M0,0v0v0v0z" fill="none"/><path d="M-11.12585,435.67555c2.76142,-4.78293 39.89595,11.48693 82.94229,36.33975c43.04634,24.85281 75.70371,48.87733 72.94229,53.66025c-2.76142,4.78293 -39.89595,-11.48693 -82.94229,-36.33975c-43.04634,-24.85281 -75.70371,-48.87733 -72.94229,-53.66025z" fill-opacity="0.5" fill="#82ff14"/><path d="M0,0v0v0v0z" fill="none"/><path d="M21.81643,402.73327c4.78293,-2.76142 28.80744,29.89595 53.66025,72.94229c24.85281,43.04634 41.12267,80.18086 36.33975,82.94229c-4.78293,2.76142 -28.80744,-29.89595 -53.66025,-72.94229c-24.85281,-43.04634 -41.12267,-80.18086 -36.33975,-82.94229z" fill-opacity="0.5" fill="#82ff14"/><path d="M0,0v0v0v0z" fill="none"/><path d="M66.81643,390.67555c5.52285,0 10,40.29437 10,90c0,49.70563 -4.47715,90 -10,90c-5.52285,0 -10,-40.29437 -10,-90c0,-49.70563 4.47715,-90 10,-90z" fill-opacity="0.5" fill="#82ff14"/><path d="M0,0v0v0v0z" fill="none"/><path d="M111.81643,402.73327c4.78293,2.76142 -11.48693,39.89595 -36.33975,82.94229c-24.85281,43.04634 -48.87733,75.70371 -53.66025,72.94229c-4.78293,-2.76142 11.48693,-39.89595 36.33975,-82.94229c24.85281,-43.04634 48.87733,-75.70371 53.66025,-72.94229z" fill-opacity="0.5" fill="#82ff14"/><path d="M0,0v0v0v0z" fill="none"/><path d="M144.75872,435.67555c2.37569,4.4019 -34.0333,31.19614 -72.94229,53.66025c-38.90899,22.46411 -80.31798,40.5981 -82.94229,36.33975c-2.62431,-4.25836 33.53606,-30.90906 72.94229,-53.66025c39.40623,-22.7512 80.5666,-40.74164 82.94229,-36.33975z" fill-opacity="0.5" fill="#82ff14"/><path d="M196.36795,474.74361c-0.30413,23.04222 -15.11092,46.51572 -31.54425,64.23472c-16.43332,17.719 -34.49318,29.6835 -55.21273,37.9406c-20.71955,8.25709 -44.09879,12.80678 -69.46922,9.45363c-25.37042,-3.35315 -52.73203,-14.60912 -69.81651,-34.55226c-17.08448,-19.94314 -23.89183,-48.57345 -23.92962,-77.07668c-0.03778,-28.50324 6.694,-56.8794 22.95938,-77.7816c16.26538,-20.90221 42.06436,-34.33045 68.57968,-40.63999c26.51533,-6.30954 53.747,-5.50037 75.62886,4.0815c21.88186,9.58187 38.41391,27.93645 53.70015,48.33262c15.28624,20.39617 29.40839,42.96526 29.10426,66.00747z" fill-opacity="0.2" fill="#488f00"/><path d="M0,0v0v0v0z" fill="none"/><path d="M393.40541,142.81831c0,-5.52285 40.29437,-10 90,-10c49.70563,0 90,4.47715 90,10c0,5.52285 -40.29437,10 -90,10c-49.70563,0 -90,-4.47715 -90,-10z" fill-opacity="0.5" fill="#488f00"/><path d="M0,0v0v0v0z" fill="none"/><path d="M405.46312,97.81831c2.76142,-4.78293 39.89595,11.48693 82.94229,36.33975c43.04634,24.85281 75.70371,48.87733 72.94229,53.66025c-2.76142,4.78293 -39.89595,-11.48693 -82.94229,-36.33975c-43.04634,-24.85281 -75.70371,-48.87733 -72.94229,-53.66025z" fill-opacity="0.5" fill="#488f00"/><path d="M0,0v0v0v0z" fill="none"/><path d="M438.40541,64.87603c4.78293,-2.76142 28.80744,29.89595 53.66025,72.94229c24.85281,43.04634 41.12267,80.18086 36.33975,82.94229c-4.78293,2.76142 -28.80744,-29.89595 -53.66025,-72.94229c-24.85281,-43.04634 -41.12267,-80.18086 -36.33975,-82.94229z" fill-opacity="0.5" fill="#488f00"/><path d="M0,0v0v0v0z" fill="none"/><path d="M483.40541,52.81831c5.52285,0 10,40.29437 10,90c0,49.70563 -4.47715,90 -10,90c-5.52285,0 -10,-40.29437 -10,-90c0,-49.70563 4.47715,-90 10,-90z" fill-opacity="0.5" fill="#488f00"/><path d="M0,0v0v0v0z" fill="none"/><path d="M528.40541,64.87603c4.78293,2.76142 -11.48693,39.89595 -36.33975,82.94229c-24.85281,43.04634 -48.87733,75.70371 -53.66025,72.94229c-4.78293,-2.76142 11.48693,-39.89595 36.33975,-82.94229c24.85281,-43.04634 48.87733,-75.70371 53.66025,-72.94229z" fill-opacity="0.5" fill="#488f00"/><path d="M0,0v0v0v0z" fill="none"/><path d="M561.3477,97.81831c2.37569,4.4019 -34.0333,31.19614 -72.94229,53.66025c-38.90899,22.46411 -80.31798,40.5981 -82.94229,36.33975c-2.62431,-4.25836 33.53606,-30.90906 72.94229,-53.66025c39.40623,-22.7512 80.5666,-40.74164 82.94229,-36.33975z" fill-opacity="0.5" fill="#488f00"/></g></svg>