<svg version="1.1" xmlns="http://www.w3.org/2000/svg" xmlns:xlink="http://www.w3.org/1999/xlink" width="500" height="500"><g fill="none" fill-rule="nonzero" stroke="none" stroke-width="1" stroke-linecap="butt" stroke-linejoin="miter" stroke-miterlimit="10" stroke-dasharray="" stroke-dashoffset="0" font-family="none" font-weight="none" font-size="none" text-anchor="none" style="mix-blend-mode: normal"><path d="M487.09581,262.05546c-0.14627,23.02123 -23.6439,45.70761 -42.92009,67.83283c-19.27619,22.12522 -34.33093,43.68928 -55.51503,48.65396c-21.1841,4.96468 -48.49756,-6.67002 -70.52676,-15.91454c-22.0292,-9.24452 -38.77413,-16.09887 -60.14502,-33.13245c-21.37089,-17.03358 -47.36773,-44.24639 -45.76202,-67.4398c1.60571,-23.19341 30.81396,-42.36743 49.42636,-64.77751c18.61239,-22.41008 26.62893,-48.05623 48.44579,-60.52362c21.81686,-12.46739 57.43405,-11.75602 81.5086,-0.25544c24.07455,11.50058 36.60648,33.79036 54.425,56.3746c17.81853,22.58424 41.20944,46.16073 41.06317,69.18196z" fill-opacity="0.9" fill="#f332ff" stroke="#000000"/><path d="M0,0v0v0v0z" fill="none" stroke="none"/><path d="M168.02729,185.48769c0,-5.52285 40.29437,-10 90,-10c49.70563,0 90,4.47715 90,10c0,5.52285 -40.29437,10 -90,10c-49.70563,0 -90,-4.47715 -90,-10z" fill-opacity="0.5" fill="#f332ff" stroke="#000000"/><path d="M0,0v0v0v0z" fill="none" stroke="none"/><path d="M180.08501,140.48769c2.76142,-4.78293 39.89595,11.48693 82.94229,36.33975c43.04634,24.85281 75.70371,48.87733 72.94229,53.66025c-2.76142,4.78293 -39.89595,-11.48693 -82.94229,-36.33975c-43.04634,-24.85281 -75.70371,-48.87733 -72.94229,-53.66025z" fill-opacity="0.5" fill="#f332ff" stroke="#000000"/><path d="M0,0v0v0v0z" fill="none" stroke="none"/><path d="M213.02729,107.5454c4.78293,-2.76142 28.80744,29.89595 53.66025,72.94229c24.85281,43.04634 41.12267,80.18086 36.33975,82.94229c-4.78293,2.76142 -28.80744,-29.89595 -53.66025,-72.94229c-24.85281,-43.04634 -41.12267,-80.18086 -36.33975,-82.94229z" fill-opacity="0.5" fill="#f332ff" stroke="#000000"/><path d="M0,0v0v0v0z" fill="none" stroke="none"/><path d="M258.02729,95.48769c5.52285,0 10,40.29437 10,90c0,49.70563 -4.47715,90 -10,90c-5.52285,0 -10,-40.29437 -10,-90c0,-49.70563 4.47715,-90 10,-90z" fill-opacity="0.5" fill="#f332ff" stroke="#000000"/><path d="M0,0v0v0v0z" fill="none" stroke="none"/><path d="M303.02729,107.5454c4.78293,2.76142 -11.48693,39.89595 -36.33975,82.94229c-24.85281,43.04634 -48.87733,75.70371 -53.66025,72.94229c-4.78293,-2.76142 11.48693,-39.89595 36.33975,-82.94229c24.85281,-43.04634 48.87733,-75.70371 53.66025,-72.94229z" fill-opacity="0.5" fill="#f332ff" stroke="#000000"/><path d="M0,0v0v0v0z" fill="none" stroke="none"/><path d="M335.96958,140.48769c2.37569,4.4019 -34.0333,31.19614 -72.94229,53.66025c-38.90899,22.46411 -80.31798,40.5981 -82.94229,36.33975c-2.62431,-4.25836 33.53606,-30.90906 72.94229,-53.66025c39.40623,-22.7512 80.5666,-40.74164 82.94229,-36.33975z" fill-opacity="0.5" fill="#f332ff" stroke="#000000"/><path d="M260.87,163.01353c-3.8553,30.1755 -11.51149,56.23877 -27.13734,70.79586c-15.62586,14.55709 -39.22138,17.608 -64.72893,29.88503c-25.50755,12.27702 -52.92714,33.78015 -74.7093,28.56981c-21.78216,-5.21034 -37.92689,-37.13416 -50.82039,-61.81557c-12.8935,-24.68141 -22.53576,-42.12042 -28.13006,-67.43512c-5.5943,-25.31471 -7.14064,-58.50511 8.31776,-81.8296c15.4584,-23.32449 47.92154,-36.78306 73.83954,-37.55142c25.918,-0.76836 45.29085,11.15349 72.14944,16.70891c26.85858,5.55542 61.20289,4.74442 78.2498,21.58271c17.0469,16.83829 16.82479,50.9139 12.96949,81.0894z" fill-opacity="0.9" fill="#ff08fb" stroke="#000000"/><path d="M0,0v0v0v0z" fill="none" stroke="none"/><path d="M28.68275,379.42262c0,-5.52285 40.29437,-10 90,-10c49.70563,0 90,4.47715 90,10c0,5.52285 -40.29437,10 -90,10c-49.70563,0 -90,-4.47715 -90,-10z" fill-opacity="0.5" fill="#ff08fb" stroke="#000000"/><path d="M0,0v0v0v0z" fill="none" stroke="none"/><path d="M40.74046,334.42262c2.76142,-4.78293 39.89595,11.48693 82.94229,36.33975c43.04634,24.85281 75.70371,48.87733 72.94229,53.66025c-2.76142,4.78293 -39.89595,-11.48693 -82.94229,-36.33975c-43.04634,-24.85281 -75.70371,-48.87733 -72.94229,-53.66025z" fill-opacity="0.5" fill="#ff08fb" stroke="#000000"/><path d="M0,0v0v0v0z" fill="none" stroke="none"/><path d="M73.68275,301.48033c4.78293,-2.76142 28.80744,29.89595 53.66025,72.94229c24.85281,43.04634 41.12267,80.18086 36.33975,82.94229c-4.78293,2.76142 -28.80744,-29.89595 -53.66025,-72.94229c-24.85281,-43.04634 -41.12267,-80.18086 -36.33975,-82.94229z" fill-opacity="0.5" fill="#ff08fb" stroke="#000000"/><path d="M0,0v0v0v0z" fill="none" stroke="none"/><path d="M118.68275,289.42262c5.52285,0 10,40.29437 10,90c0,49.70563 -4.47715,90 -10,90c-5.52285,0 -10,-40.29437 -10,-90c0,-49.70563 4.47715,-90 10,-90z" fill-opacity="0.5" fill="#ff08fb" stroke="#000000"/><path d="M0,0v0v0v0z" fill="none" stroke="none"/><path d="M163.68275,301.48033c4.78293,2.76142 -11.48693,39.89595 -36.33975,82.94229c-24.85281,43.04634 -48.87733,75.70371 -53.66025,72.94229c-4.78293,-2.76142 11.48693,-39.89595 36.33975,-82.94229c24.85281,-43.04634 48.87733,-75.70371 53.66025,-72.94229z" fill-opacity="0.5" fill="#ff08fb" stroke="#000000"/><path d="M0,0v0v0v0z" fill="none" stroke="none"/><path d="M196.62504,334.42262c2.37569,4.4019 -34.0333,31.19614 -72.94229,53.66025c-38.90899,22.46411 -80.31798,40.5981 -82.94229,36.33975c-2.62431,-4.25836 33.53606,-30.90906 72.94229,-53.66025c39.40623,-22.7512 80.5666,-40.74164 82.94229,-36.33975z" fill-opacity="0.5" fill="#ff08fb" stroke="#000000"/><path d="M115.08342,329.42691c2.38984,27.68968 10.15783,58.71689 -2.09897,76.42978c-12.2568,17.71289 -44.53841,22.11144 -71.19827,28.20623c-26.65986,6.09479 -47.69798,13.88583 -71.70373,11.40936c-24.00575,-2.47646 -50.97913,-15.22042 -70.96558,-37.09127c-19.98644,-21.87084 -32.98595,-52.86856 -28.32338,-78.95411c4.66257,-26.08554 26.98722,-47.2589 46.18751,-65.97506c19.20028,-18.71616 35.2762,-34.97511 55.62684,-42.29795c20.35064,-7.32284 44.976,-5.70957 70.00415,1.0954c25.02815,6.80497 50.45909,18.80164 61.77837,36.9918c11.31928,18.19016 8.30322,42.49614 10.69306,70.18581z" fill-opacity="0.9" fill="#006624" stroke="#000000"/><path d="M0,0v0v0v0z" fill="none" stroke="none"/><path d="M160.61046,329.11225c0,-5.52285 40.29437,-10 90,-10c49.70563,0 90,4.47715 90,10c0,5.52285 -40.29437,10 -90,10c-49.70563,0 -90,-4.47715 -90,-10z" fill-opacity="0.5" fill="#006624" stroke="#000000"/><path d="M0,0v0v0v0z" fill="none" stroke="none"/><path d="M172.66818,284.11225c2.76142,-4.78293 39.89595,11.48693 82.94229,36.33975c43.04634,24.85281 75.70371,48.87733 72.94229,53.66025c-2.76142,4.78293 -39.89595,-11.48693 -82.94229,-36.33975c-43.04634,-24.85281 -75.70371,-48.87733 -72.94229,-53.66025z" fill-opacity="0.5" fill="#006624" stroke="#000000"/><path d="M0,0v0v0v0z" fill="none" stroke="none"/><path d="M205.61046,251.16996c4.78293,-2.76142 28.80744,29.89595 53.66025,72.94229c24.85281,43.04634 41.12267,80.18086 36.33975,82.94229c-4.78293,2.76142 -28.80744,-29.89595 -53.66025,-72.94229c-24.85281,-43.04634 -41.12267,-80.18086 -36.33975,-82.94229z" fill-opacity="0.5" fill="#006624" stroke="#000000"/><path d="M0,0v0v0v0z" fill="none" stroke="none"/><path d="M250.61046,239.11225c5.52285,0 10,40.29437 10,90c0,49.70563 -4.47715,90 -10,90c-5.52285,0 -10,-40.29437 -10,-90c0,-49.70563 4.47715,-90 10,-90z" fill-opacity="0.5" fill="#006624" stroke="#000000"/><path d="M0,0v0v0v0z" fill="none" stroke="none"/><path d="M295.61046,251.16996c4.78293,2.76142 -11.48693,39.89595 -36.33975,82.94229c-24.85281,43.04634 -48.87733,75.70371 -53.66025,72.94229c-4.78293,-2.76142 11.48693,-39.89595 36.33975,-82.94229c24.85281,-43.04634 48.87733,-75.70371 53.66025,-72.94229z" fill-opacity="0.5" fill="#006624" stroke="#000000"/><path d="M0,0v0v0v0z" fill="none" stroke="none"/><path d="M328.55275,284.11225c2.37569,4.4019 -34.0333,31.19614 -72.94229,53.66025c-38.90899,22.46411 -80.31798,40.5981 -82.94229,36.33975c-2.62431,-4.25836 33.53606,-30.90906 72.94229,-53.66025c39.40623,-22.7512 80.5666,-40.74164 82.94229,-36.33975z" fill-opacity="0.5" fill="#006624" stroke="#000000"/><path d="M477.20961,453.16612c0.77087,20.40073 -27.033,42.28762 -46.18136,64.84769c-19.14836,22.56006 -29.6412,45.7933 -50.21372,55.30958c-20.57252,9.51627 -51.22471,5.31559 -77.16665,-2.82c-25.94194,-8.13558 -47.17361,-20.20606 -66.56926,-41.27229c-19.39565,-21.06623 -36.95528,-51.12821 -32.58436,-76.06497c4.37092,-24.93676 30.6724,-44.74829 48.74919,-64.32053c18.0768,-19.57224 27.92891,-38.9052 50.59506,-52.43003c22.66614,-13.52483 58.14631,-21.24154 79.27276,-10.47534c21.12645,10.7662 27.89918,40.01532 45.83882,63.88809c17.93965,23.87277 47.48864,42.93709 48.25952,63.33782z" fill-opacity="0.9" fill="#c9008e" stroke="#000000"/><path d="M0,0v0v0v0z" fill="none" stroke="none"/><path d="M335.96103,72.44863c0,-5.52285 40.29437,-10 90,-10c49.70563,0 90,4.47715 90,10c0,5.52285 -40.29437,10 -90,10c-49.70563,0 -90,-4.47715 -90,-10z" fill-opacity="0.5" fill="#c9008e" stroke="#000000"/><path d="M0,0v0v0v0z" fill="none" stroke="none"/><path d="M348.01875,27.44863c2.76142,-4.78293 39.89595,11.48693 82.94229,36.33975c43.04634,24.85281 75.70371,48.87733 72.94229,53.66025c-2.76142,4.78293 -39.89595,-11.48693 -82.94229,-36.33975c-43.04634,-24.85281 -75.70371,-48.87733 -72.94229,-53.66025z" fill-opacity="0.5" fill="#c9008e" stroke="#000000"/><path d="M0,0v0v0v0z" fill="none" stroke="none"/><path d="M380.96103,-5.49365c4.78293,-2.76142 28.80744,29.89595 53.66025,72.94229c24.85281,43.04634 41.12267,80.18086 36.33975,82.94229c-4.78293,2.76142 -28.80744,-29.89595 -53.66025,-72.94229c-24.85281,-43.04634 -41.12267,-80.18086 -36.33975,-82.94229z" fill-opacity="0.5" fill="#c9008e" stroke="#000000"/><path d="M0,0v0v0v0z" fill="none" stroke="none"/><path d="M425.96103,-17.55137c5.52285,0 10,40.29437 10,90c0,49.70563 -4.47715,90 -10,90c-5.52285,0 -10,-40.29437 -10,-90c0,-49.70563 4.47715,-90 10,-90z" fill-opacity="0.5" fill="#c9008e" stroke="#000000"/><path d="M0,0v0v0v0z" fill="none" stroke="none"/><path d="M470.96103,-5.49365c4.78293,2.76142 -11.48693,39.89595 -36.33975,82.94229c-24.85281,43.04634 -48.87733,75.70371 -53.66025,72.94229c-4.78293,-2.76142 11.48693,-39.89595 36.33975,-82.94229c24.85281,-43.04634 48.87733,-75.70371 53.66025,-72.94229z" fill-opacity="0.5" fill="#c9008e" stroke="#000000"/><path d="M0,0v0v0v0z" fill="none" stroke="none"/><path d="M503.90332,27.44863c2.37569,4.4019 -34.0333,31.19614 -72.94229,53.66025c-38.90899,22.46411 -80.31798,40.5981 -82.94229,36.33975c-2.62431,-4.25836 33.53606,-30.90906 72.94229,-53.66025c39.40623,-22.7512 80.5666,-40.74164 82.94229,-36.33975z" fill-opacity="0.5" fill="#c9008e" stroke="#000000"/><path d="M264.67575,123.34403c1.16497,25.45063 -8.32294,53.04993 -24.24937,74.7273c-15.92642,21.67737 -38.29136,37.43282 -63.56888,46.17773c-25.27752,8.74491 -53.46761,10.47928 -79.48559,2.82142c-26.01798,-7.65786 -49.86384,-24.70794 -66.19032,-46.42852c-16.32648,-21.72058 -25.13357,-48.11167 -26.12513,-77.29794c-0.99156,-29.18627 5.83242,-61.16772 23.61623,-79.12076c17.78381,-17.95304 46.52746,-21.87768 73.57526,-29.59879c27.0478,-7.72111 52.39975,-19.2387 75.09943,-13.69318c22.69968,5.54552 42.74708,28.15415 58.59102,50.94614c15.84394,22.79198 27.57238,46.01596 28.73734,71.46659z" fill-opacity="0.9" fill="#ff2664" stroke="#000000"/><path d="M0,0v0v0v0z" fill="none" stroke="none"/><path d="M26.37784,252.04827c0,-5.52285 40.29437,-10 90,-10c49.70563,0 90,4.47715 90,10c0,5.52285 -40.29437,10 -90,10c-49.70563,0 -90,-4.47715 -90,-10z" fill-opacity="0.5" fill="#ff2664" stroke="#000000"/><path d="M0,0v0v0v0z" fill="none" stroke="none"/><path d="M38.43555,207.04827c2.76142,-4.78293 39.89595,11.48693 82.94229,36.33975c43.04634,24.85281 75.70371,48.87733 72.94229,53.66025c-2.76142,4.78293 -39.89595,-11.48693 -82.94229,-36.33975c-43.04634,-24.85281 -75.70371,-48.87733 -72.94229,-53.66025z" fill-opacity="0.5" fill="#ff2664" stroke="#000000"/><path d="M0,0v0v0v0z" fill="none" stroke="none"/><path d="M71.37784,174.10598c4.78293,-2.76142 28.80744,29.89595 53.66025,72.94229c24.85281,43.04634 41.12267,80.18086 36.33975,82.94229c-4.78293,2.76142 -28.80744,-29.89595 -53.66025,-72.94229c-24.85281,-43.04634 -41.12267,-80.18086 -36.33975,-82.94229z" fill-opacity="0.5" fill="#ff2664" stroke="#000000"/><path d="M0,0v0v0v0z" fill="none" stroke="none"/><path d="M116.37784,162.04827c5.52285,0 10,40.29437 10,90c0,49.70563 -4.47715,90 -10,90c-5.52285,0 -10,-40.29437 -10,-90c0,-49.70563 4.47715,-90 10,-90z" fill-opacity="0.5" fill="#ff2664" stroke="#000000"/><path d="M0,0v0v0v0z" fill="none" stroke="none"/><path d="M161.37784,174.10598c4.78293,2.76142 -11.48693,39.89595 -36.33975,82.94229c-24.85281,43.04634 -48.87733,75.70371 -53.66025,72.94229c-4.78293,-2.76142 11.48693,-39.89595 36.33975,-82.94229c24.85281,-43.04634 48.87733,-75.70371 53.66025,-72.94229z" fill-opacity="0.5" fill="#ff2664" stroke="#000000"/><path d="M0,0v0v0v0z" fill="none" stroke="none"/><path d="M194.32013,207.04827c2.37569,4.4019 -34.0333,31.19614 -72.94229,53.66025c-38.90899,22.46411 -80.31798,40.5981 -82.94229,36.33975c-2.62431,-4.25836 33.53606,-30.90906 72.94229,-53.66025c39.40623,-22.7512 80.5666,-40.74164 82.94229,-36.33975z" fill-opacity="0.5" fill="#ff2664" stroke="#000000"/><path d="M461.31744,310.88183c-5.7877,25.94111 -10.53096,45.10512 -21.94392,65.56642c-11.41296,20.46131 -29.49563,42.21991 -52.44957,50.75423c-22.95394,8.53431 -50.77916,3.84434 -73.97633,-4.96558c-23.19717,-8.80992 -41.76628,-21.73977 -60.19732,-41.33179c-18.43104,-19.59202 -36.72399,-45.84621 -35.72281,-70.02328c1.00118,-24.17707 21.2965,-46.27701 38.78017,-67.80198c17.48367,-21.52497 32.1557,-42.47496 53.94722,-53.37935c21.79152,-10.90439 50.70253,-11.76317 80.39814,-5.07737c29.69561,6.6858 60.17582,20.91617 71.93737,44.1875c11.76154,23.27133 5.01476,56.13008 -0.77294,82.07119z" fill-opacity="0.9" fill="#27e600" stroke="#000000"/><path d="M0,0v0v0v0z" fill="none" stroke="none"/><path d="M-54.05178,168.87319c0,-5.52285 40.29437,-10 90,-10c49.70563,0 90,4.47715 90,10c0,5.52285 -40.29437,10 -90,10c-49.70563,0 -90,-4.47715 -90,-10z" fill-opacity="0.5" fill="#27e600" stroke="#000000"/><path d="M0,0v0v0v0z" fill="none" stroke="none"/><path d="M-41.99407,123.87319c2.76142,-4.78293 39.89595,11.48693 82.94229,36.33975c43.04634,24.85281 75.70371,48.87733 72.94229,53.66025c-2.76142,4.78293 -39.89595,-11.48693 -82.94229,-36.33975c-43.04634,-24.85281 -75.70371,-48.87733 -72.94229,-53.66025z" fill-opacity="0.5" fill="#27e600" stroke="#000000"/><path d="M0,0v0v0v0z" fill="none" stroke="none"/><path d="M-9.05178,90.93091c4.78293,-2.76142 28.80744,29.89595 53.66025,72.94229c24.85281,43.04634 41.12267,80.18086 36.33975,82.94229c-4.78293,2.76142 -28.80744,-29.89595 -53.66025,-72.94229c-24.85281,-43.04634 -41.12267,-80.18086 -36.33975,-82.94229z" fill-opacity="0.5" fill="#27e600" stroke="#000000"/><path d="M0,0v0v0v0z" fill="none" stroke="none"/><path d="M35.94822,78.87319c5.52285,0 10,40.29437 10,90c0,49.70563 -4.47715,90 -10,90c-5.52285,0 -10,-40.29437 -10,-90c0,-49.70563 4.47715,-90 10,-90z" fill-opacity="0.5" fill="#27e600" stroke="#000000"/><path d="M0,0v0v0v0z" fill="none" stroke="none"/><path d="M80.94822,90.93091c4.78293,2.76142 -11.48693,39.89595 -36.33975,82.94229c-24.85281,43.04634 -48.87733,75.70371 -53.66025,72.94229c-4.78293,-2.76142 11.48693,-39.89595 36.33975,-82.94229c24.85281,-43.04634 48.87733,-75.70371 53.66025,-72.94229z" fill-opacity="0.5" fill="#27e600" stroke="#000000"/><path d="M0,0v0v0v0z" fill="none" stroke="none"/><path d="M113.8905,123.87319c2.37569,4.4019 -34.0333,31.19614 -72.94229,53.66025c-38.90899,22.46411 -80.31798,40.5981 -82.94229,36.33975c-2.62431,-4.25836 33.53606,-30.90906 72.94229,-53.66025c39.40623,-22.7512 80.5666,-40.74164 82.94229,-36.33975z" fill-opacity="0.5" fill="#27e600" stroke="#000000"/><path d="M278.05284,45.61174c1.20379,24.83346 -10.96001,51.57051 -28.10351,74.12721c-17.1435,22.5567 -39.2667,40.93304 -63.18749,45.4096c-23.92079,4.47655 -49.63917,-4.94668 -73.2993,-13.48158c-23.66012,-8.53489 -45.26199,-16.18144 -65.27475,-33.5941c-20.01277,-17.41266 -38.43644,-44.59142 -40.1145,-72.46113c-1.67806,-27.8697 13.38949,-56.43034 31.69967,-78.57486c18.31017,-22.14452 39.86297,-37.87291 66.93517,-48.2683c27.0722,-10.39539 59.66381,-15.45778 84.09956,-5.1455c24.43575,10.31228 40.71565,35.99923 56.10084,60.07071c15.3852,24.07148 29.94051,47.08449 31.1443,71.91794z" fill-opacity="0.9" fill="#ff2592" stroke="#000000"/><path d="M0,0v0v0v0z" fill="none" stroke="none"/><path d="M373.79792,335.66795c0,-5.52285 40.29437,-10 90,-10c49.70563,0 90,4.47715 90,10c0,5.52285 -40.29437,10 -90,10c-49.70563,0 -90,-4.47715 -90,-10z" fill-opacity="0.5" fill="#ff2592" stroke="#000000"/><path d="M0,0v0v0v0z" fill="none" stroke="none"/><path d="M385.85564,290.66795c2.76142,-4.78293 39.89595,11.48693 82.94229,36.33975c43.04634,24.85281 75.70371,48.87733 72.94229,53.66025c-2.76142,4.78293 -39.89595,-11.48693 -82.94229,-36.33975c-43.04634,-24.85281 -75.70371,-48.87733 -72.94229,-53.66025z" fill-opacity="0.5" fill="#ff2592" stroke="#000000"/><path d="M0,0v0v0v0z" fill="none" stroke="none"/><path d="M418.79792,257.72566c4.78293,-2.76142 28.80744,29.89595 53.66025,72.94229c24.85281,43.04634 41.12267,80.18086 36.33975,82.94229c-4.78293,2.76142 -28.80744,-29.89595 -53.66025,-72.94229c-24.85281,-43.04634 -41.12267,-80.18086 -36.33975,-82.94229z" fill-opacity="0.5" fill="#ff2592" stroke="#000000"/><path d="M0,0v0v0v0z" fill="none" stroke="none"/><path d="M463.79792,245.66795c5.52285,0 10,40.29437 10,90c0,49.70563 -4.47715,90 -10,90c-5.52285,0 -10,-40.29437 -10,-90c0,-49.70563 4.47715,-90 10,-90z" fill-opacity="0.5" fill="#ff2592" stroke="#000000"/><path d="M0,0v0v0v0z" fill="none" stroke="none"/><path d="M508.79792,257.72566c4.78293,2.76142 -11.48693,39.89595 -36.33975,82.94229c-24.85281,43.04634 -48.87733,75.70371 -53.66025,72.94229c-4.78293,-2.76142 11.48693,-39.89595 36.33975,-82.94229c24.85281,-43.04634 48.87733,-75.70371 53.66025,-72.94229z" fill-opacity="0.5" fill="#ff2592" stroke="#000000"/><path d="M0,0v0v0v0z" fill="none" stroke="none"/><path d="M541.74021,290.66795c2.37569,4.4019 -34.0333,31.19614 -72.94229,53.66025c-38.90899,22.46411 -80.31798,40.5981 -82.94229,36.33975c-2.62431,-4.25836 33.53606,-30.90906 72.94229,-53.66025c39.40623,-22.7512 80.5666,-40.74164 82.94229,-36.33975z" fill-opacity="0.5" fill="#ff2592" stroke="#000000"/><path d="M410.41762,385.34945c1.49845,26.23545 -9.57221,55.35301 -26.23144,74.31043c-16.65923,18.95741 -38.90701,27.75467 -65.32545,39.42254c-26.41844,11.66786 -57.00752,26.20632 -79.97674,18.67718c-22.96922,-7.52915 -38.31857,-37.12591 -53.13451,-62.54786c-14.81595,-25.42195 -29.09849,-46.66908 -30.22743,-69.86228c-1.12894,-23.19319 10.89574,-48.33245 25.76017,-73.10793c14.86443,-24.77548 32.56861,-49.18719 57.81326,-58.65131c25.24465,-9.46411 58.02976,-3.98063 82.92374,8.30546c24.89397,12.28609 41.8968,31.37477 57.3572,52.63785c15.4604,21.26308 29.54275,44.58048 31.0412,70.81593z" fill-opacity="0.9" fill="#a300da" stroke="#000000"/><path d="M0,0v0v0v0z" fill="none" stroke="none"/><path d="M113.20143,374.89765c0,-5.52285 40.29437,-10 90,-10c49.70563,0 90,4.47715 90,10c0,5.52285 -40.29437,10 -90,10c-49.70563,0 -90,-4.47715 -90,-10z" fill-opacity="0.5" fill="#a300da" stroke="#000000"/><path d="M0,0v0v0v0z" fill="none" stroke="none"/><path d="M125.25914,329.89765c2.76142,-4.78293 39.89595,11.48693 82.94229,36.33975c43.04634,24.85281 75.70371,48.87733 72.94229,53.66025c-2.76142,4.78293 -39.89595,-11.48693 -82.94229,-36.33975c-43.04634,-24.85281 -75.70371,-48.87733 -72.94229,-53.66025z" fill-opacity="0.5" fill="#a300da" stroke="#000000"/><path d="M0,0v0v0v0z" fill="none" stroke="none"/><path d="M158.20143,296.95536c4.78293,-2.76142 28.80744,29.89595 53.66025,72.94229c24.85281,43.04634 41.12267,80.18086 36.33975,82.94229c-4.78293,2.76142 -28.80744,-29.89595 -53.66025,-72.94229c-24.85281,-43.04634 -41.12267,-80.18086 -36.33975,-82.94229z" fill-opacity="0.5" fill="#a300da" stroke="#000000"/><path d="M0,0v0v0v0z" fill="none" stroke="none"/><path d="M203.20143,284.89765c5.52285,0 10,40.29437 10,90c0,49.70563 -4.47715,90 -10,90c-5.52285,0 -10,-40.29437 -10,-90c0,-49.70563 4.47715,-90 10,-90z" fill-opacity="0.5" fill="#a300da" stroke="#000000"/><path d="M0,0v0v0v0z" fill="none" stroke="none"/><path d="M248.20143,296.95536c4.78293,2.76142 -11.48693,39.89595 -36.33975,82.94229c-24.85281,43.04634 -48.87733,75.70371 -53.66025,72.94229c-4.78293,-2.76142 11.48693,-39.89595 36.33975,-82.94229c24.85281,-43.04634 48.87733,-75.70371 53.66025,-72.94229z" fill-opacity="0.5" fill="#a300da" stroke="#000000"/><path d="M0,0v0v0v0z" fill="none" stroke="none"/><path d="M281.14371,329.89765c2.37569,4.4019 -34.0333,31.19614 -72.94229,53.66025c-38.90899,22.46411 -80.31798,40.5981 -82.94229,36.33975c-2.62431,-4.25836 33.53606,-30.90906 72.94229,-53.66025c39.40623,-22.7512 80.5666,-40.74164 82.94229,-36.33975z" fill-opacity="0.5" fill="#a300da" stroke="#000000"/></g></svg>